<svg xmlns="http://www.w3.org/2000/svg" xmlns:xlink="http://www.w3.org/1999/xlink" width="800" zoomAndPan="magnify" viewBox="0 0 375 374.999991" height="800" preserveAspectRatio="xMidYMid meet" version="1.0"><defs><clipPath id="c61e5baf25"><path d="M 112.5 112.5 L 262.5 112.5 L 262.5 262.5 L 112.5 262.5 Z M 112.5 112.5 " clip-rule="nonzero"/></clipPath><clipPath id="790cab92d6"><path d="M 173 146.214844 L 219.578125 146.214844 L 219.578125 228.714844 L 173 228.714844 Z M 173 146.214844 " clip-rule="nonzero"/></clipPath><clipPath id="09fde349cd"><path d="M 135.578125 151 L 171 151 L 171 214 L 135.578125 214 Z M 135.578125 151 " clip-rule="nonzero"/></clipPath><clipPath id="f04ffa3094"><path d="M 144.128906 151.242188 C 143.335938 155.210938 145.324219 159.304688 148.179688 162.160156 C 151.039062 165.019531 154.695312 166.921875 158.1875 168.964844 C 161.679688 171.007812 165.164062 173.328125 167.363281 176.730469 C 169.273438 179.6875 170.046875 183.230469 170.449219 186.730469 C 170.9375 190.964844 170.871094 195.417969 169.519531 199.414062 C 168.539062 197.007812 167.261719 194.703125 165.804688 192.554688 C 162.949219 188.320312 159.429688 184.582031 155.929688 180.867188 C 151.835938 176.527344 147.75 172.183594 143.660156 167.84375 C 147.890625 175.785156 154.457031 182.175781 160.007812 189.265625 C 165.558594 196.351562 170.285156 204.808594 169.765625 213.792969 C 169.355469 209.199219 165.625 205.550781 161.582031 203.324219 C 157.535156 201.101562 153 199.867188 149.003906 197.542969 C 141.460938 193.128906 136.386719 184.761719 135.992188 176.039062 C 135.59375 167.21875 139.621094 158.835938 144.128906 151.242188 Z M 144.128906 151.242188 " clip-rule="nonzero"/></clipPath><linearGradient x1="-1204.20996" gradientTransform="matrix(-0.0823609, 0, 0, 0.0823609, 54.165378, 146.216676)" y1="60.999876" x2="-1204.20996" gradientUnits="userSpaceOnUse" y2="820.499921" id="9c86984afb"><stop stop-opacity="1" stop-color="rgb(2.149963%, 3.320312%, 1.542664%)" offset="0"/><stop stop-opacity="1" stop-color="rgb(2.218628%, 3.425598%, 1.591492%)" offset="0.0625"/><stop stop-opacity="1" stop-color="rgb(2.357483%, 3.639221%, 1.690674%)" offset="0.125"/><stop stop-opacity="1" stop-color="rgb(2.496338%, 3.852844%, 1.789856%)" offset="0.1875"/><stop stop-opacity="1" stop-color="rgb(2.633667%, 4.066467%, 1.889038%)" offset="0.25"/><stop stop-opacity="1" stop-color="rgb(2.772522%, 4.28009%, 1.989746%)" offset="0.3125"/><stop stop-opacity="1" stop-color="rgb(2.909851%, 4.493713%, 2.088928%)" offset="0.375"/><stop stop-opacity="1" stop-color="rgb(3.048706%, 4.707336%, 2.18811%)" offset="0.4375"/><stop stop-opacity="1" stop-color="rgb(3.187561%, 4.920959%, 2.287292%)" offset="0.5"/><stop stop-opacity="1" stop-color="rgb(3.32489%, 5.133057%, 2.386475%)" offset="0.5625"/><stop stop-opacity="1" stop-color="rgb(3.463745%, 5.34668%, 2.485657%)" offset="0.625"/><stop stop-opacity="1" stop-color="rgb(3.601074%, 5.560303%, 2.584839%)" offset="0.6875"/><stop stop-opacity="1" stop-color="rgb(3.739929%, 5.773926%, 2.684021%)" offset="0.75"/><stop stop-opacity="1" stop-color="rgb(3.878784%, 5.987549%, 2.783203%)" offset="0.8125"/><stop stop-opacity="1" stop-color="rgb(4.016113%, 6.201172%, 2.882385%)" offset="0.875"/><stop stop-opacity="1" stop-color="rgb(4.154968%, 6.414795%, 2.981567%)" offset="0.9375"/><stop stop-opacity="1" stop-color="rgb(4.292297%, 6.626892%, 3.08075%)" offset="1"/></linearGradient></defs><g clip-path="url(#c61e5baf25)"><path fill="#7ed957" d="M 262.5 187.5 C 262.5 188.726562 262.46875 189.953125 262.410156 191.179688 C 262.347656 192.40625 262.257812 193.628906 262.140625 194.851562 C 262.019531 196.074219 261.867188 197.289062 261.6875 198.503906 C 261.507812 199.71875 261.296875 200.929688 261.058594 202.132812 C 260.820312 203.335938 260.550781 204.53125 260.253906 205.722656 C 259.953125 206.914062 259.625 208.097656 259.269531 209.269531 C 258.914062 210.445312 258.527344 211.609375 258.117188 212.765625 C 257.703125 213.921875 257.261719 215.066406 256.789062 216.203125 C 256.320312 217.335938 255.824219 218.457031 255.300781 219.566406 C 254.773438 220.675781 254.222656 221.773438 253.644531 222.855469 C 253.066406 223.9375 252.460938 225.003906 251.828125 226.058594 C 251.199219 227.109375 250.542969 228.148438 249.859375 229.167969 C 249.179688 230.1875 248.472656 231.191406 247.742188 232.175781 C 247.007812 233.164062 246.253906 234.128906 245.476562 235.078125 C 244.695312 236.027344 243.894531 236.957031 243.070312 237.867188 C 242.246094 238.777344 241.402344 239.664062 240.53125 240.53125 C 239.664062 241.402344 238.777344 242.246094 237.867188 243.070312 C 236.957031 243.894531 236.027344 244.695312 235.078125 245.476562 C 234.128906 246.253906 233.164062 247.007812 232.175781 247.742188 C 231.191406 248.472656 230.1875 249.179688 229.167969 249.859375 C 228.148438 250.542969 227.109375 251.199219 226.058594 251.828125 C 225.003906 252.460938 223.9375 253.066406 222.855469 253.644531 C 221.773438 254.222656 220.675781 254.773438 219.566406 255.300781 C 218.457031 255.824219 217.335938 256.320312 216.203125 256.789062 C 215.066406 257.261719 213.921875 257.703125 212.765625 258.117188 C 211.609375 258.527344 210.445312 258.914062 209.269531 259.269531 C 208.097656 259.625 206.914062 259.953125 205.722656 260.253906 C 204.53125 260.550781 203.335938 260.820312 202.132812 261.058594 C 200.929688 261.296875 199.71875 261.507812 198.503906 261.6875 C 197.289062 261.867188 196.074219 262.019531 194.851562 262.140625 C 193.628906 262.257812 192.40625 262.347656 191.179688 262.410156 C 189.953125 262.46875 188.726562 262.5 187.5 262.5 C 186.273438 262.5 185.046875 262.46875 183.820312 262.410156 C 182.59375 262.347656 181.371094 262.257812 180.148438 262.140625 C 178.925781 262.019531 177.710938 261.867188 176.496094 261.6875 C 175.28125 261.507812 174.070312 261.296875 172.867188 261.058594 C 171.664062 260.820312 170.46875 260.550781 169.277344 260.253906 C 168.085938 259.953125 166.902344 259.625 165.730469 259.269531 C 164.554688 258.914062 163.390625 258.527344 162.234375 258.117188 C 161.078125 257.703125 159.933594 257.261719 158.796875 256.789062 C 157.664062 256.320312 156.542969 255.824219 155.433594 255.300781 C 154.324219 254.773438 153.226562 254.222656 152.144531 253.644531 C 151.0625 253.066406 149.996094 252.460938 148.941406 251.828125 C 147.890625 251.199219 146.851562 250.542969 145.832031 249.859375 C 144.8125 249.179688 143.808594 248.472656 142.824219 247.742188 C 141.835938 247.007812 140.871094 246.253906 139.921875 245.476562 C 138.972656 244.695312 138.042969 243.894531 137.132812 243.070312 C 136.222656 242.246094 135.335938 241.402344 134.46875 240.53125 C 133.597656 239.664062 132.753906 238.777344 131.929688 237.867188 C 131.105469 236.957031 130.304688 236.027344 129.523438 235.078125 C 128.746094 234.128906 127.992188 233.164062 127.257812 232.175781 C 126.527344 231.191406 125.820312 230.1875 125.140625 229.167969 C 124.457031 228.148438 123.800781 227.109375 123.171875 226.058594 C 122.539062 225.003906 121.933594 223.9375 121.355469 222.855469 C 120.777344 221.773438 120.226562 220.675781 119.699219 219.566406 C 119.175781 218.457031 118.679688 217.335938 118.210938 216.203125 C 117.738281 215.066406 117.296875 213.921875 116.882812 212.765625 C 116.46875 211.609375 116.085938 210.445312 115.730469 209.269531 C 115.375 208.097656 115.046875 206.914062 114.746094 205.722656 C 114.449219 204.53125 114.179688 203.335938 113.941406 202.132812 C 113.703125 200.929688 113.492188 199.71875 113.3125 198.503906 C 113.132812 197.289062 112.980469 196.074219 112.859375 194.851562 C 112.742188 193.628906 112.652344 192.40625 112.589844 191.179688 C 112.53125 189.953125 112.5 188.726562 112.5 187.5 C 112.5 186.273438 112.53125 185.046875 112.589844 183.820312 C 112.652344 182.59375 112.742188 181.371094 112.859375 180.148438 C 112.980469 178.925781 113.132812 177.710938 113.3125 176.496094 C 113.492188 175.28125 113.703125 174.070312 113.941406 172.867188 C 114.179688 171.664062 114.449219 170.46875 114.746094 169.277344 C 115.046875 168.085938 115.375 166.902344 115.730469 165.730469 C 116.085938 164.554688 116.46875 163.390625 116.882812 162.234375 C 117.296875 161.078125 117.738281 159.933594 118.210938 158.796875 C 118.679688 157.664062 119.175781 156.542969 119.699219 155.433594 C 120.226562 154.324219 120.777344 153.226562 121.355469 152.144531 C 121.933594 151.0625 122.539062 149.996094 123.171875 148.941406 C 123.800781 147.890625 124.457031 146.851562 125.140625 145.832031 C 125.820312 144.8125 126.527344 143.808594 127.257812 142.824219 C 127.992188 141.835938 128.746094 140.871094 129.523438 139.921875 C 130.304688 138.972656 131.105469 138.042969 131.929688 137.132812 C 132.753906 136.222656 133.597656 135.335938 134.46875 134.46875 C 135.335938 133.597656 136.222656 132.753906 137.132812 131.929688 C 138.042969 131.105469 138.972656 130.304688 139.921875 129.523438 C 140.871094 128.746094 141.835938 127.992188 142.824219 127.257812 C 143.808594 126.527344 144.8125 125.820312 145.832031 125.140625 C 146.851562 124.457031 147.890625 123.800781 148.941406 123.171875 C 149.996094 122.539062 151.0625 121.933594 152.144531 121.355469 C 153.226562 120.777344 154.324219 120.226562 155.433594 119.699219 C 156.542969 119.175781 157.664062 118.679688 158.796875 118.210938 C 159.933594 117.738281 161.078125 117.296875 162.234375 116.882812 C 163.390625 116.46875 164.554688 116.085938 165.730469 115.730469 C 166.902344 115.375 168.085938 115.046875 169.277344 114.746094 C 170.46875 114.449219 171.664062 114.179688 172.867188 113.941406 C 174.070312 113.703125 175.28125 113.492188 176.496094 113.3125 C 177.710938 113.132812 178.925781 112.980469 180.148438 112.859375 C 181.371094 112.742188 182.59375 112.652344 183.820312 112.589844 C 185.046875 112.53125 186.273438 112.5 187.5 112.5 C 188.726562 112.5 189.953125 112.53125 191.179688 112.589844 C 192.40625 112.652344 193.628906 112.742188 194.851562 112.859375 C 196.074219 112.980469 197.289062 113.132812 198.503906 113.3125 C 199.71875 113.492188 200.929688 113.703125 202.132812 113.941406 C 203.335938 114.179688 204.53125 114.449219 205.722656 114.746094 C 206.914062 115.046875 208.097656 115.375 209.269531 115.730469 C 210.445312 116.085938 211.609375 116.46875 212.765625 116.882812 C 213.921875 117.296875 215.066406 117.738281 216.203125 118.210938 C 217.335938 118.679688 218.457031 119.175781 219.566406 119.699219 C 220.675781 120.226562 221.773438 120.777344 222.855469 121.355469 C 223.9375 121.933594 225.003906 122.539062 226.058594 123.171875 C 227.109375 123.800781 228.148438 124.457031 229.167969 125.140625 C 230.1875 125.820312 231.191406 126.527344 232.175781 127.257812 C 233.164062 127.992188 234.128906 128.746094 235.078125 129.523438 C 236.027344 130.304688 236.957031 131.105469 237.867188 131.929688 C 238.777344 132.753906 239.664062 133.597656 240.53125 134.46875 C 241.402344 135.335938 242.246094 136.222656 243.070312 137.132812 C 243.894531 138.042969 244.695312 138.972656 245.476562 139.921875 C 246.253906 140.871094 247.007812 141.835938 247.742188 142.824219 C 248.472656 143.808594 249.179688 144.8125 249.859375 145.832031 C 250.542969 146.851562 251.199219 147.890625 251.828125 148.941406 C 252.460938 149.996094 253.066406 151.0625 253.644531 152.144531 C 254.222656 153.226562 254.773438 154.324219 255.300781 155.433594 C 255.824219 156.542969 256.320312 157.664062 256.789062 158.796875 C 257.261719 159.933594 257.703125 161.078125 258.117188 162.234375 C 258.527344 163.390625 258.914062 164.554688 259.269531 165.730469 C 259.625 166.902344 259.953125 168.085938 260.253906 169.277344 C 260.550781 170.46875 260.820312 171.664062 261.058594 172.867188 C 261.296875 174.070312 261.507812 175.28125 261.6875 176.496094 C 261.867188 177.710938 262.019531 178.925781 262.140625 180.148438 C 262.257812 181.371094 262.347656 182.59375 262.410156 183.820312 C 262.46875 185.046875 262.5 186.273438 262.5 187.5 Z M 262.5 187.5 " fill-opacity="1" fill-rule="nonzero"/></g><path fill="#000000" d="M 187.5 120.160156 C 185.816406 120.160156 184.132812 120.21875 182.453125 120.339844 C 180.777344 120.464844 179.101562 120.644531 177.4375 120.886719 C 175.769531 121.132812 174.113281 121.433594 172.46875 121.796875 C 170.824219 122.160156 169.195312 122.582031 167.582031 123.0625 C 165.96875 123.542969 164.375 124.082031 162.800781 124.679688 C 161.226562 125.273438 159.675781 125.925781 158.148438 126.636719 C 156.621094 127.34375 155.121094 128.105469 153.648438 128.925781 C 152.175781 129.742188 150.734375 130.609375 149.324219 131.53125 C 147.914062 132.453125 146.542969 133.425781 145.203125 134.445312 C 143.863281 135.46875 142.5625 136.535156 141.300781 137.652344 C 140.039062 138.765625 138.820312 139.925781 137.644531 141.128906 C 136.464844 142.332031 135.332031 143.578125 134.246094 144.863281 C 133.15625 146.148438 132.117188 147.472656 131.125 148.832031 C 130.136719 150.195312 129.195312 151.589844 128.304688 153.019531 C 127.414062 154.445312 126.574219 155.90625 125.789062 157.394531 C 125.003906 158.886719 124.273438 160.402344 123.601562 161.945312 C 122.925781 163.488281 122.304688 165.050781 121.746094 166.640625 C 121.183594 168.226562 120.679688 169.832031 120.234375 171.457031 C 119.789062 173.082031 119.402344 174.71875 119.074219 176.371094 C 118.75 178.023438 118.480469 179.683594 118.277344 181.355469 C 118.070312 183.027344 117.921875 184.703125 117.839844 186.382812 C 117.753906 188.066406 117.730469 189.75 117.765625 191.433594 C 117.800781 193.117188 117.898438 194.796875 118.058594 196.472656 C 118.21875 198.148438 118.4375 199.816406 118.714844 201.476562 C 118.996094 203.136719 119.332031 204.785156 119.730469 206.421875 C 120.128906 208.058594 120.585938 209.675781 121.105469 211.28125 C 121.621094 212.882812 122.191406 214.464844 122.824219 216.027344 C 123.453125 217.589844 124.140625 219.125 124.882812 220.636719 C 125.625 222.148438 126.417969 223.632812 127.269531 225.085938 C 128.117188 226.539062 129.019531 227.960938 129.96875 229.347656 C 130.921875 230.738281 131.925781 232.089844 132.972656 233.40625 C 134.023438 234.722656 135.121094 236 136.261719 237.238281 C 136.460938 237.46875 136.699219 237.65625 136.972656 237.792969 C 137.246094 237.925781 137.535156 238.003906 137.84375 238.023438 C 138.148438 238.039062 138.445312 238 138.734375 237.894531 C 139.023438 237.792969 139.277344 237.636719 139.503906 237.429688 C 139.726562 237.21875 139.902344 236.976562 140.027344 236.695312 C 140.152344 236.417969 140.21875 236.125 140.222656 235.816406 C 140.230469 235.511719 140.175781 235.21875 140.0625 234.933594 C 139.945312 234.648438 139.78125 234.398438 139.5625 234.183594 C 138.796875 233.351562 138.054688 232.503906 137.332031 231.636719 C 136.609375 230.769531 135.910156 229.882812 135.234375 228.976562 C 134.558594 228.070312 133.90625 227.152344 133.277344 226.210938 C 132.652344 225.273438 132.046875 224.320312 131.46875 223.351562 C 130.890625 222.378906 130.339844 221.394531 129.8125 220.398438 C 129.285156 219.398438 128.78125 218.386719 128.308594 217.363281 C 127.832031 216.339844 127.386719 215.300781 126.964844 214.253906 C 126.542969 213.207031 126.148438 212.148438 125.78125 211.082031 C 125.417969 210.011719 125.078125 208.9375 124.769531 207.851562 C 124.457031 206.765625 124.175781 205.671875 123.921875 204.570312 C 123.667969 203.46875 123.445312 202.363281 123.25 201.253906 C 123.050781 200.140625 122.886719 199.023438 122.746094 197.902344 C 122.609375 196.78125 122.5 195.660156 122.421875 194.53125 C 122.339844 193.40625 122.289062 192.277344 122.269531 191.148438 C 122.25 190.019531 122.257812 188.890625 122.292969 187.761719 C 122.332031 186.632812 122.398438 185.507812 122.492188 184.382812 C 122.589844 183.257812 122.714844 182.136719 122.867188 181.015625 C 123.023438 179.898438 123.207031 178.785156 123.417969 177.675781 C 123.628906 176.566406 123.871094 175.464844 124.140625 174.367188 C 124.410156 173.269531 124.707031 172.179688 125.03125 171.101562 C 125.359375 170.019531 125.710938 168.945312 126.09375 167.882812 C 126.472656 166.820312 126.882812 165.769531 127.320312 164.726562 C 127.753906 163.6875 128.21875 162.65625 128.707031 161.640625 C 129.195312 160.621094 129.710938 159.617188 130.253906 158.625 C 130.796875 157.636719 131.363281 156.660156 131.953125 155.699219 C 132.546875 154.738281 133.164062 153.792969 133.804688 152.863281 C 134.445312 151.933594 135.113281 151.019531 135.800781 150.125 C 136.488281 149.230469 137.199219 148.355469 137.933594 147.496094 C 138.667969 146.640625 139.425781 145.800781 140.203125 144.980469 C 140.980469 144.164062 141.777344 143.367188 142.597656 142.589844 C 143.417969 141.8125 144.253906 141.054688 145.113281 140.320312 C 145.972656 139.589844 146.847656 138.878906 147.746094 138.191406 C 148.640625 137.5 149.550781 136.835938 150.480469 136.195312 C 151.410156 135.554688 152.359375 134.9375 153.320312 134.347656 C 154.28125 133.757812 155.257812 133.191406 156.25 132.648438 C 157.238281 132.109375 158.246094 131.59375 159.261719 131.105469 C 160.28125 130.617188 161.308594 130.152344 162.351562 129.71875 C 163.394531 129.28125 164.445312 128.875 165.507812 128.492188 C 166.574219 128.113281 167.644531 127.761719 168.726562 127.433594 C 169.808594 127.109375 170.898438 126.8125 171.992188 126.546875 C 173.089844 126.277344 174.195312 126.035156 175.300781 125.824219 C 176.410156 125.613281 177.527344 125.433594 178.644531 125.277344 C 179.761719 125.125 180.886719 125 182.011719 124.90625 C 183.136719 124.8125 184.261719 124.746094 185.390625 124.707031 C 186.519531 124.671875 187.648438 124.664062 188.777344 124.6875 C 189.90625 124.707031 191.035156 124.757812 192.160156 124.839844 C 193.285156 124.921875 194.410156 125.03125 195.53125 125.167969 C 196.652344 125.308594 197.765625 125.476562 198.878906 125.671875 C 199.992188 125.871094 201.097656 126.09375 202.199219 126.347656 C 203.296875 126.601562 204.390625 126.886719 205.476562 127.195312 C 206.5625 127.507812 207.636719 127.847656 208.707031 128.214844 C 209.773438 128.582031 210.832031 128.976562 211.878906 129.394531 C 212.925781 129.816406 213.960938 130.265625 214.988281 130.742188 C 216.011719 131.21875 217.023438 131.71875 218.019531 132.246094 C 219.019531 132.777344 220 133.328125 220.972656 133.910156 C 221.941406 134.488281 222.894531 135.089844 223.832031 135.71875 C 224.769531 136.347656 225.691406 137 226.59375 137.675781 C 227.5 138.355469 228.386719 139.054688 229.253906 139.777344 C 230.121094 140.5 230.96875 141.242188 231.800781 142.007812 C 232.628906 142.777344 233.4375 143.5625 234.226562 144.371094 C 235.011719 145.179688 235.78125 146.007812 236.527344 146.855469 C 237.269531 147.703125 237.992188 148.570312 238.695312 149.457031 C 239.394531 150.34375 240.070312 151.246094 240.722656 152.167969 C 241.378906 153.089844 242.007812 154.027344 242.613281 154.980469 C 243.214844 155.933594 243.796875 156.902344 244.351562 157.886719 C 244.90625 158.867188 245.433594 159.867188 245.9375 160.878906 C 246.4375 161.890625 246.914062 162.914062 247.363281 163.949219 C 247.8125 164.984375 248.234375 166.03125 248.632812 167.089844 C 249.027344 168.144531 249.394531 169.214844 249.734375 170.289062 C 250.074219 171.367188 250.386719 172.453125 250.667969 173.546875 C 250.953125 174.636719 251.207031 175.738281 251.433594 176.84375 C 251.660156 177.949219 251.855469 179.0625 252.027344 180.179688 C 252.195312 181.292969 252.335938 182.414062 252.445312 183.539062 C 252.554688 184.664062 252.636719 185.789062 252.6875 186.917969 C 252.742188 188.042969 252.761719 189.171875 252.757812 190.300781 C 252.75 191.429688 252.714844 192.558594 252.648438 193.6875 C 252.585938 194.8125 252.488281 195.9375 252.367188 197.0625 C 252.242188 198.183594 252.089844 199.300781 251.910156 200.417969 C 251.726562 201.53125 251.515625 202.640625 251.277344 203.742188 C 251.039062 204.847656 250.769531 205.945312 250.476562 207.035156 C 250.179688 208.121094 249.855469 209.203125 249.503906 210.277344 C 249.148438 211.351562 248.769531 212.414062 248.363281 213.464844 C 247.957031 214.519531 247.519531 215.5625 247.058594 216.589844 C 246.597656 217.621094 246.109375 218.640625 245.597656 219.644531 C 245.082031 220.652344 244.542969 221.640625 243.976562 222.617188 C 243.410156 223.597656 242.820312 224.558594 242.203125 225.503906 C 241.585938 226.449219 240.949219 227.382812 240.285156 228.292969 C 239.621094 229.207031 238.933594 230.101562 238.222656 230.980469 C 237.511719 231.859375 236.777344 232.714844 236.023438 233.554688 C 235.269531 234.394531 234.492188 235.214844 233.695312 236.015625 C 232.898438 236.8125 232.078125 237.59375 231.242188 238.347656 C 230.402344 239.105469 229.546875 239.839844 228.671875 240.550781 C 227.792969 241.265625 226.898438 241.953125 225.988281 242.621094 C 225.074219 243.285156 224.148438 243.925781 223.203125 244.546875 C 222.257812 245.164062 221.296875 245.753906 220.320312 246.324219 C 219.34375 246.890625 218.355469 247.433594 217.351562 247.949219 C 219.734375 239.808594 220.230469 227.164062 220.144531 216.796875 C 220.144531 216.515625 220.121094 216.234375 220.082031 215.957031 C 220.042969 215.675781 219.988281 215.402344 219.914062 215.132812 C 219.839844 214.859375 219.75 214.597656 219.640625 214.335938 C 219.53125 214.078125 219.40625 213.824219 219.265625 213.582031 C 219.125 213.339844 218.972656 213.105469 218.800781 212.882812 C 218.628906 212.660156 218.445312 212.449219 218.25 212.246094 C 218.050781 212.046875 217.839844 211.863281 217.621094 211.6875 C 217.398438 211.515625 217.167969 211.359375 216.925781 211.214844 C 216.683594 211.070312 216.433594 210.945312 216.175781 210.835938 C 215.917969 210.722656 215.652344 210.628906 215.382812 210.550781 C 215.113281 210.476562 214.835938 210.417969 214.558594 210.375 C 214.28125 210.332031 214.003906 210.308594 213.722656 210.304688 C 213.441406 210.296875 213.160156 210.308594 212.878906 210.339844 C 212.601562 210.371094 212.324219 210.417969 212.050781 210.484375 C 211.777344 210.550781 211.511719 210.632812 211.25 210.730469 C 210.984375 210.832031 210.730469 210.949219 210.484375 211.082031 L 207.710938 212.566406 C 207.195312 212.320312 206.652344 212.199219 206.082031 212.199219 C 205.574219 212.195312 205.082031 212.289062 204.609375 212.476562 C 204.136719 212.667969 203.714844 212.9375 203.347656 213.292969 C 202.980469 213.644531 202.691406 214.054688 202.484375 214.519531 C 202.277344 214.984375 202.167969 215.472656 202.148438 215.980469 C 202.132812 216.488281 202.210938 216.984375 202.386719 217.460938 C 202.5625 217.941406 202.820312 218.367188 203.164062 218.746094 C 203.507812 219.121094 203.90625 219.421875 204.367188 219.640625 C 204.828125 219.863281 205.3125 219.988281 205.820312 220.019531 C 206.328125 220.050781 206.824219 219.984375 207.304688 219.824219 C 207.789062 219.664062 208.222656 219.414062 208.609375 219.082031 C 208.996094 218.753906 209.308594 218.359375 209.542969 217.90625 C 209.773438 217.453125 209.914062 216.972656 209.960938 216.464844 L 212.605469 215.050781 C 212.925781 214.875 213.269531 214.792969 213.632812 214.800781 C 213.996094 214.808594 214.332031 214.90625 214.644531 215.09375 C 214.957031 215.273438 215.199219 215.519531 215.378906 215.828125 C 215.554688 216.140625 215.644531 216.472656 215.644531 216.832031 C 215.78125 233.261719 214.296875 245.550781 211.628906 250.308594 C 206.167969 249.878906 195.148438 244.308594 181.550781 235.078125 C 181.253906 234.878906 181.023438 234.617188 180.867188 234.296875 C 180.707031 233.972656 180.636719 233.636719 180.660156 233.277344 C 180.675781 232.914062 180.78125 232.578125 180.976562 232.269531 C 181.171875 231.964844 181.433594 231.726562 181.753906 231.558594 L 184.59375 230.039062 C 185.058594 230.226562 185.542969 230.324219 186.046875 230.324219 C 186.5625 230.328125 187.058594 230.230469 187.535156 230.035156 C 188.011719 229.84375 188.433594 229.566406 188.804688 229.203125 C 189.171875 228.84375 189.457031 228.425781 189.660156 227.953125 C 189.863281 227.480469 189.96875 226.988281 189.976562 226.472656 C 189.984375 225.957031 189.894531 225.460938 189.707031 224.980469 C 189.519531 224.5 189.25 224.074219 188.894531 223.703125 C 188.539062 223.332031 188.125 223.039062 187.652344 222.832031 C 187.183594 222.621094 186.691406 222.507812 186.175781 222.492188 C 185.660156 222.480469 185.164062 222.5625 184.679688 222.742188 C 184.199219 222.925781 183.769531 223.191406 183.394531 223.542969 C 183.015625 223.890625 182.71875 224.300781 182.503906 224.769531 C 182.289062 225.238281 182.167969 225.726562 182.148438 226.242188 L 179.632812 227.59375 C 179.382812 227.722656 179.144531 227.871094 178.914062 228.035156 C 178.6875 228.199219 178.46875 228.375 178.261719 228.566406 C 178.054688 228.753906 177.863281 228.960938 177.683594 229.175781 C 177.503906 229.390625 177.335938 229.617188 177.183594 229.855469 C 177.035156 230.089844 176.898438 230.335938 176.777344 230.589844 C 176.660156 230.84375 176.558594 231.105469 176.472656 231.375 C 176.386719 231.640625 176.316406 231.914062 176.265625 232.191406 C 176.214844 232.464844 176.179688 232.746094 176.164062 233.023438 C 176.152344 233.304688 176.152344 233.585938 176.175781 233.867188 C 176.195312 234.148438 176.234375 234.425781 176.289062 234.699219 C 176.347656 234.976562 176.421875 235.246094 176.511719 235.511719 C 176.601562 235.777344 176.710938 236.035156 176.835938 236.289062 C 176.960938 236.539062 177.101562 236.78125 177.257812 237.015625 C 177.410156 237.25 177.582031 237.472656 177.765625 237.6875 C 177.949219 237.898438 178.148438 238.097656 178.359375 238.285156 C 178.570312 238.472656 178.789062 238.644531 179.023438 238.800781 C 189.894531 246.183594 204.34375 254.839844 212.320312 254.839844 C 212.375 254.839844 212.429688 254.839844 212.484375 254.839844 C 212.535156 254.839844 212.554688 254.855469 212.589844 254.855469 C 212.695312 254.851562 212.800781 254.84375 212.902344 254.824219 L 212.988281 254.824219 C 213.058594 254.824219 213.128906 254.800781 213.199219 254.789062 C 213.273438 254.777344 213.320312 254.773438 213.382812 254.757812 C 213.5 254.730469 213.613281 254.6875 213.726562 254.636719 C 213.761719 254.625 213.796875 254.613281 213.832031 254.597656 C 213.964844 254.53125 214.085938 254.457031 214.203125 254.367188 C 216.050781 253.601562 217.863281 252.761719 219.640625 251.839844 C 221.414062 250.921875 223.148438 249.925781 224.835938 248.859375 C 226.527344 247.789062 228.167969 246.648438 229.761719 245.441406 C 231.351562 244.230469 232.890625 242.953125 234.371094 241.613281 C 235.851562 240.269531 237.273438 238.867188 238.636719 237.402344 C 240 235.9375 241.292969 234.417969 242.523438 232.84375 C 243.753906 231.265625 244.917969 229.640625 246.007812 227.964844 C 247.097656 226.289062 248.117188 224.570312 249.058594 222.808594 C 250 221.042969 250.867188 219.242188 251.65625 217.40625 C 252.445312 215.566406 253.152344 213.699219 253.78125 211.800781 C 254.40625 209.902344 254.953125 207.980469 255.414062 206.035156 C 255.875 204.089844 256.253906 202.128906 256.546875 200.152344 C 256.84375 198.171875 257.050781 196.1875 257.171875 194.191406 C 257.296875 192.195312 257.332031 190.199219 257.285156 188.199219 C 257.234375 186.199219 257.101562 184.207031 256.878906 182.21875 C 256.660156 180.230469 256.351562 178.257812 255.964844 176.296875 C 255.574219 174.335938 255.097656 172.394531 254.542969 170.476562 C 253.984375 168.554688 253.347656 166.660156 252.625 164.796875 C 251.90625 162.929688 251.109375 161.101562 250.230469 159.304688 C 249.351562 157.507812 248.402344 155.75 247.371094 154.035156 C 246.34375 152.320312 245.242188 150.652344 244.070312 149.035156 C 242.898438 147.414062 241.660156 145.847656 240.355469 144.332031 C 239.046875 142.820312 237.679688 141.363281 236.246094 139.96875 C 234.816406 138.574219 233.328125 137.242188 231.78125 135.972656 C 230.234375 134.703125 228.636719 133.507812 226.988281 132.375 C 225.339844 131.246094 223.644531 130.1875 221.902344 129.203125 C 220.164062 128.21875 218.382812 127.308594 216.566406 126.476562 C 214.746094 125.648438 212.894531 124.894531 211.011719 124.222656 C 209.128906 123.550781 207.222656 122.960938 205.289062 122.449219 C 203.355469 121.941406 201.402344 121.519531 199.429688 121.175781 C 197.460938 120.835938 195.480469 120.582031 193.488281 120.410156 C 191.496094 120.242188 189.5 120.15625 187.5 120.160156 Z M 187.5 120.160156 " fill-opacity="1" fill-rule="nonzero"/><path fill="#000000" d="M 243.988281 189.910156 C 243.988281 190.207031 244.042969 190.496094 244.160156 190.769531 C 244.273438 191.046875 244.433594 191.289062 244.644531 191.5 C 244.855469 191.710938 245.101562 191.875 245.375 191.988281 C 245.652344 192.101562 245.9375 192.160156 246.238281 192.160156 C 246.535156 192.160156 246.824219 192.101562 247.097656 191.988281 C 247.375 191.875 247.617188 191.710938 247.828125 191.5 C 248.039062 191.289062 248.203125 191.046875 248.316406 190.769531 C 248.429688 190.496094 248.488281 190.207031 248.488281 189.910156 C 248.484375 187.914062 248.386719 185.921875 248.1875 183.933594 C 247.988281 181.945312 247.695312 179.972656 247.304688 178.015625 C 246.914062 176.058594 246.425781 174.121094 245.847656 172.210938 C 245.265625 170.300781 244.59375 168.425781 243.828125 166.578125 C 243.0625 164.734375 242.210938 162.933594 241.265625 161.171875 C 240.324219 159.410156 239.300781 157.703125 238.191406 156.042969 C 237.078125 154.382812 235.890625 152.78125 234.625 151.234375 C 233.355469 149.691406 232.019531 148.214844 230.605469 146.804688 C 229.195312 145.390625 227.714844 144.050781 226.171875 142.785156 C 224.628906 141.519531 223.027344 140.328125 221.367188 139.21875 C 219.707031 138.109375 217.996094 137.082031 216.238281 136.140625 C 214.476562 135.199219 212.671875 134.347656 210.828125 133.582031 C 208.984375 132.816406 207.105469 132.144531 205.195312 131.5625 C 203.285156 130.980469 201.351562 130.496094 199.394531 130.105469 C 197.433594 129.714844 195.460938 129.417969 193.476562 129.222656 C 191.488281 129.023438 189.496094 128.925781 187.5 128.921875 C 187.203125 128.921875 186.914062 128.980469 186.640625 129.09375 C 186.363281 129.207031 186.121094 129.371094 185.910156 129.582031 C 185.699219 129.792969 185.535156 130.035156 185.421875 130.3125 C 185.308594 130.585938 185.25 130.875 185.25 131.171875 C 185.25 131.46875 185.308594 131.757812 185.421875 132.03125 C 185.535156 132.308594 185.699219 132.550781 185.910156 132.761719 C 186.121094 132.972656 186.363281 133.136719 186.640625 133.25 C 186.914062 133.363281 187.203125 133.421875 187.5 133.421875 C 189.347656 133.425781 191.195312 133.515625 193.035156 133.699219 C 194.875 133.882812 196.703125 134.15625 198.515625 134.519531 C 200.328125 134.878906 202.121094 135.332031 203.890625 135.867188 C 205.660156 136.40625 207.398438 137.03125 209.105469 137.738281 C 210.816406 138.449219 212.484375 139.238281 214.117188 140.109375 C 215.746094 140.984375 217.332031 141.933594 218.867188 142.960938 C 220.40625 143.988281 221.886719 145.089844 223.316406 146.261719 C 224.746094 147.4375 226.117188 148.675781 227.425781 149.984375 C 228.730469 151.292969 229.972656 152.660156 231.144531 154.089844 C 232.320312 155.519531 233.421875 157.003906 234.449219 158.542969 C 235.476562 160.078125 236.425781 161.664062 237.296875 163.292969 C 238.171875 164.925781 238.960938 166.59375 239.671875 168.300781 C 240.378906 170.011719 241.003906 171.75 241.539062 173.519531 C 242.078125 175.289062 242.527344 177.078125 242.890625 178.894531 C 243.253906 180.707031 243.527344 182.535156 243.710938 184.375 C 243.890625 186.214844 243.984375 188.058594 243.988281 189.910156 Z M 243.988281 189.910156 " fill-opacity="1" fill-rule="nonzero"/><g clip-path="url(#790cab92d6)"><path fill="#006838" d="M 208.582031 146.214844 C 209.628906 151.453125 207.011719 156.859375 203.238281 160.628906 C 199.464844 164.410156 194.640625 166.914062 190.035156 169.605469 C 185.421875 172.300781 180.820312 175.371094 177.929688 179.859375 C 175.410156 183.765625 174.378906 188.441406 173.851562 193.054688 C 173.191406 198.65625 173.285156 204.527344 175.0625 209.800781 C 176.355469 206.621094 178.042969 203.582031 179.964844 200.738281 C 183.734375 195.148438 188.378906 190.214844 193 185.304688 C 198.402344 179.574219 203.796875 173.847656 209.203125 168.117188 C 203.609375 178.59375 194.945312 187.042969 187.621094 196.390625 C 180.300781 205.746094 174.058594 216.914062 174.742188 228.773438 C 175.285156 222.707031 180.210938 217.886719 185.554688 214.957031 C 190.902344 212.023438 196.886719 210.382812 202.152344 207.320312 C 212.109375 201.523438 218.804688 190.46875 219.324219 178.957031 C 219.851562 167.308594 214.539062 156.230469 208.582031 146.214844 Z M 208.582031 146.214844 " fill-opacity="1" fill-rule="nonzero"/></g><g clip-path="url(#09fde349cd)"><g clip-path="url(#f04ffa3094)"><path fill="url(#9c86984afb)" d="M 170.9375 151.242188 L 170.9375 213.792969 L 135.59375 213.792969 L 135.59375 151.242188 Z M 170.9375 151.242188 " fill-rule="nonzero"/></g></g></svg>